<svg width="151" height="69" viewBox="0 0 151 69" fill="none" xmlns="http://www.w3.org/2000/svg">
<path fill-rule="evenodd" clip-rule="evenodd" d="M73.337 63.0313H69.5842V60.2687H73.9843V59.1025H68.2625V67.9644H69.5842V64.1987H73.337V63.0313Z" fill="#00A79A"/>
<path fill-rule="evenodd" clip-rule="evenodd" d="M78.3249 66.5657C78.0706 66.8163 77.7355 66.9483 77.3558 66.9483C76.9848 66.9483 76.6546 66.8163 76.4014 66.5657C75.9849 66.1542 75.9502 65.444 75.9502 64.8103C75.9502 64.1758 75.9849 63.464 76.4014 63.0534C76.6506 62.8082 76.9712 62.6841 77.3558 62.6841C77.7435 62.6841 78.0785 62.8114 78.3245 63.053C78.7402 63.4656 78.7749 64.1766 78.7749 64.8103C78.7749 65.4432 78.7402 66.1526 78.3249 66.5657ZM79.2661 62.3369C78.9335 61.9972 78.3325 61.5916 77.3558 61.5916C76.5915 61.5916 75.9358 61.8498 75.4586 62.3369C74.9228 62.8859 74.7043 63.6028 74.7043 64.8103C74.7043 65.8373 74.8325 66.6531 75.459 67.2971C75.937 67.7827 76.5927 68.04 77.3558 68.04C78.3313 68.04 78.9327 67.6356 79.2661 67.2971C79.8926 66.6524 80.0208 65.8366 80.0208 64.8103C80.0208 63.6035 79.802 62.8863 79.2661 62.3369Z" fill="#00A79A"/>
<path fill-rule="evenodd" clip-rule="evenodd" d="M82.7878 62.3457L82.7442 62.4052V61.6674H81.5239V67.9645H82.7706V64.1337C82.7706 63.2939 83.3193 62.6842 84.0748 62.6842C84.524 62.6842 84.7552 62.8237 85.0379 63.0996L85.9807 62.1687C85.5626 61.7648 85.1122 61.5918 84.4801 61.5918C83.7881 61.5918 83.1236 61.8877 82.7878 62.3457Z" fill="#00A79A"/>
<path fill-rule="evenodd" clip-rule="evenodd" d="M97.3042 61.6674L96.0459 66.1933L94.5421 61.6674H93.5749L92.0599 66.1929L92.0392 66.1177L90.8005 61.6674H89.4828L91.4586 67.9644H92.5387L94.0533 63.4835L94.0757 63.5505L95.5787 67.9644H96.6477L98.6359 61.6674H97.3042Z" fill="#00A79A"/>
<path fill-rule="evenodd" clip-rule="evenodd" d="M104.983 67.9644V63.8968C104.983 62.4749 104.137 61.5917 102.774 61.5917C102.131 61.5917 101.563 61.836 101.132 62.2979L101.091 62.3424V59.1025H99.844V67.9644H101.091V64.097C101.091 63.2252 101.6 62.6841 102.421 62.6841C103.245 62.6841 103.736 63.2122 103.736 64.097V67.9644H104.983Z" fill="#00A79A"/>
<path fill-rule="evenodd" clip-rule="evenodd" d="M108.713 65.1382H110.162V65.6978C110.162 66.1574 110.071 66.4612 109.876 66.6535C109.515 66.996 109.126 67.0228 108.654 67.0228C107.855 67.0228 107.451 66.7119 107.451 66.099C107.451 65.4945 107.953 65.1382 108.713 65.1382ZM108.452 68.04C109.221 68.04 109.624 67.9032 110.147 67.3972L110.187 67.3566V67.9643H111.407V63.7466C111.407 62.3168 110.523 61.5916 108.78 61.5916C107.752 61.5916 107.209 61.8316 106.507 62.4803L107.32 63.2351C107.777 62.7862 108.095 62.634 108.73 62.634C109.72 62.634 110.162 63.0077 110.162 63.8459V64.2964H108.523C107.149 64.2964 106.244 64.9943 106.244 66.1243C106.244 66.6626 106.422 67.141 106.744 67.4709C107.142 67.8642 107.669 68.04 108.452 68.04Z" fill="#00A79A"/>
<path fill-rule="evenodd" clip-rule="evenodd" d="M116.206 67.9644V66.9232H115.442C114.961 66.9232 114.707 66.6595 114.707 66.1606V62.6322H115.95V61.7025H114.707V59.8529H113.461V61.7025H112.727V62.6322H113.461V66.2244C113.461 67.0268 113.917 67.9644 115.201 67.9644H116.206Z" fill="#00A79A"/>
<path fill-rule="evenodd" clip-rule="evenodd" d="M117.53 58.6186V61.425L118.762 60.4476V58.6186H117.53Z" fill="#00A79A"/>
<path fill-rule="evenodd" clip-rule="evenodd" d="M123.972 66.049C123.972 64.9817 123.335 64.387 122.078 64.2818L121.065 64.1959C120.444 64.1387 120.155 63.9003 120.155 63.4455C120.155 62.9217 120.6 62.6092 121.346 62.6092C122.024 62.6092 122.557 62.7621 122.929 63.0636L123.706 62.2833C123.154 61.8179 122.385 61.5916 121.358 61.5916C119.924 61.5916 118.96 62.3621 118.96 63.5086C118.96 64.5522 119.593 65.1339 120.84 65.2371L121.867 65.3242C122.462 65.3727 122.751 65.6265 122.751 66.099C122.751 66.6622 122.216 66.9984 121.32 66.9984C120.53 66.9984 119.908 66.7785 119.47 66.345L118.653 67.1497C119.47 67.9312 120.418 68.04 121.32 68.04C122.956 68.04 123.972 67.277 123.972 66.049Z" fill="#00A79A"/>
<path fill-rule="evenodd" clip-rule="evenodd" d="M133.805 67.9643V63.9338C133.805 63.133 133.608 62.5864 133.167 62.1611C132.776 61.7887 132.234 61.5916 131.598 61.5916C130.931 61.5916 130.329 61.8427 129.903 62.2979L129.862 62.3424V61.6673H128.642V67.9643H129.889V64.1214C129.889 63.0617 130.588 62.6841 131.243 62.6841C132.068 62.6841 132.56 63.2213 132.56 64.1214V67.9643H133.805Z" fill="#00A79A"/>
<path fill-rule="evenodd" clip-rule="evenodd" d="M136.333 64.2956C136.346 63.905 136.373 63.7151 136.5 63.425C136.718 62.9143 137.205 62.6092 137.802 62.6092C138.394 62.6092 138.876 62.9143 139.093 63.425C139.22 63.7135 139.259 63.9007 139.271 64.2956L139.272 64.3196H136.333L136.333 64.2956ZM137.993 66.9854C136.954 66.9854 136.333 66.3126 136.333 65.1851V65.1618H140.505V64.6227C140.505 62.7814 139.445 61.5916 137.802 61.5916C136.136 61.5916 135.101 62.8252 135.101 64.8103C135.101 67.4796 136.66 68.04 137.967 68.04C139.12 68.04 139.734 67.6711 140.342 67.0752L139.553 66.3442C139.128 66.7599 138.748 66.9854 137.993 66.9854Z" fill="#00A79A"/>
<path fill-rule="evenodd" clip-rule="evenodd" d="M145.278 67.9644H146.78L144.602 64.7474L144.611 64.7344L146.691 61.6674H145.19L143.921 63.7554L142.639 61.6674H141.139L143.239 64.7474L143.23 64.7604L141.049 67.9644H142.551L143.921 65.7783L145.278 67.9644Z" fill="#00A79A"/>
<path fill-rule="evenodd" clip-rule="evenodd" d="M150.9 67.9644V66.9232H150.392C149.911 66.9232 149.658 66.6595 149.658 66.1606V62.5829H150.9V61.6532H149.658V59.8529H148.412V61.6532H147.677V62.5829H148.412V66.2244C148.412 67.0268 148.867 67.9644 150.15 67.9644H150.9Z" fill="#00A79A"/>
<path fill-rule="evenodd" clip-rule="evenodd" d="M86.6244 10.7953C85.8988 10.508 85.1154 10.8749 84.7859 11.5729C84.6717 11.8145 82.2203 17.6331 75.0151 17.6331C73.0804 17.6331 71.4883 17.1712 70.0001 16.4441C69.4502 16.1753 69.338 16.1075 69.0581 15.9514C68.1281 15.4324 67.2176 14.8247 66.2645 14.1906C63.2061 12.1558 59.742 9.85066 54.3425 9.85066C44.2582 9.85066 36.5849 17.7355 36.2631 18.0705C35.7252 18.6313 35.7508 19.5137 36.319 20.0466C36.8856 20.577 37.7553 20.5274 38.3204 19.9934C38.6386 19.6931 45.4953 12.6468 54.3425 12.6468C57.2252 12.6468 59.4158 13.4071 61.3952 14.4688C51.592 14.7529 45.7253 21.225 45.4761 21.5044C44.9626 22.0845 45.0209 22.9653 45.6055 23.4749C46.1909 23.9861 47.0242 23.9297 47.6044 23.3516C47.6615 23.2948 53.123 17.3154 61.9239 17.2567C64.0115 17.2417 66.2062 17.6516 67.7595 18.4741C69.814 19.563 72.124 20.43 75.0151 20.43C84.1897 20.43 87.2928 12.9227 87.4198 12.6023C87.7053 11.8862 87.3499 11.0799 86.6244 10.7953Z" fill="#00A79A"/>
<path fill-rule="evenodd" clip-rule="evenodd" d="M82.227 7.11835C82.227 11.0499 78.9982 14.2371 75.0146 14.2371C71.031 14.2371 67.8017 11.0499 67.8017 7.11835C67.8017 3.18714 71.031 0 75.0146 0C78.9982 0 82.227 3.18714 82.227 7.11835Z" fill="#00A79A"/>
<path fill-rule="evenodd" clip-rule="evenodd" d="M24.591 40.0301C24.591 39.2612 24.3395 38.6401 23.8635 38.2338C23.4718 37.8885 22.9854 37.699 22.1848 37.5804L21.1541 37.4298C20.7289 37.3671 20.3511 37.215 20.1179 37.0109C19.8823 36.8055 19.7629 36.521 19.7629 36.1655C19.7629 35.3052 20.4258 34.7491 21.4516 34.7491C22.3054 34.7491 22.9155 34.9572 23.4254 35.4238L24.258 34.6198C23.4969 33.9337 22.6667 33.6405 21.4896 33.6405C19.6671 33.6405 18.4895 34.651 18.4895 36.2148C18.4895 36.9344 18.7031 37.4814 19.1424 37.8874C19.5381 38.2499 20.1263 38.4931 20.8439 38.5905L21.9148 38.7398C22.4551 38.8159 22.6911 38.9053 22.9255 39.1221C23.1647 39.3326 23.2917 39.6601 23.2917 40.068C23.2917 40.9511 22.5973 41.458 21.3869 41.458C20.3735 41.458 19.6783 41.2081 19.0697 40.6232L18.198 41.4647C19.0126 42.2631 19.9614 42.6044 21.3626 42.6044C23.3236 42.6044 24.591 41.5939 24.591 40.0301Z" fill="#003C68"/>
<path fill-rule="evenodd" clip-rule="evenodd" d="M28.7259 41.5329C28.2244 41.5329 27.7899 41.3291 27.5032 40.9595C27.2277 40.6174 27.1151 40.1634 27.1151 39.3945C27.1151 38.6339 27.2277 38.1842 27.5036 37.8417C27.7895 37.472 28.2236 37.2687 28.7259 37.2687C29.2282 37.2687 29.5549 37.422 29.9622 37.8531L30.8079 37.0492C30.2169 36.4442 29.6116 36.1971 28.7259 36.1971C28.0582 36.1971 25.8796 36.4277 25.8796 39.3945C25.8796 42.3731 28.0582 42.6045 28.7259 42.6045C29.6032 42.6045 30.2086 42.353 30.8079 41.7386L29.9622 40.9477C29.5541 41.3792 29.2274 41.5329 28.7259 41.5329Z" fill="#003C68"/>
<path fill-rule="evenodd" clip-rule="evenodd" d="M32.1154 34.9616H33.4268V33.6776H32.1154V34.9616Z" fill="#003C68"/>
<path fill-rule="evenodd" clip-rule="evenodd" d="M32.1535 42.5296H33.389V36.2708H32.1535V42.5296Z" fill="#003C68"/>
<path fill-rule="evenodd" clip-rule="evenodd" d="M36.1735 38.8821C36.1871 38.4869 36.2147 38.2957 36.3417 38.01C36.5581 37.5067 37.062 37.1938 37.657 37.1938C38.2532 37.1938 38.7407 37.4988 38.9608 38.0104C39.0901 38.3016 39.1289 38.4888 39.1413 38.8821L39.1421 38.9149H36.1723L36.1735 38.8821ZM37.8495 41.5703C36.8001 41.5703 36.1735 40.8968 36.1735 39.7685V39.737H40.364V39.2073C40.364 37.3506 39.3269 36.1971 37.657 36.1971C35.9879 36.1971 34.9512 37.422 34.9512 39.3945C34.9512 42.0472 36.5126 42.6045 37.8223 42.6045C38.9739 42.6045 39.5997 42.2372 40.2114 41.6768L39.4687 40.9378C39.0007 41.3504 38.6066 41.5703 37.8495 41.5703Z" fill="#003C68"/>
<path fill-rule="evenodd" clip-rule="evenodd" d="M47.18 42.5296V38.5215C47.18 37.7258 46.9827 37.1832 46.5403 36.7615C46.1497 36.3922 45.6067 36.1971 44.9701 36.1971C44.3021 36.1971 43.6995 36.4458 43.2739 36.8974L43.2183 36.9561V36.2708H42.01V42.5296H43.2451V38.7087C43.2451 37.6466 43.9527 37.2687 44.6148 37.2687C45.4481 37.2687 45.9457 37.807 45.9457 38.7087V42.5296H47.18Z" fill="#003C68"/>
<path fill-rule="evenodd" clip-rule="evenodd" d="M51.6217 41.5329C51.1189 41.5329 50.6849 41.3291 50.399 40.9595C50.1227 40.6146 50.0096 40.161 50.0096 39.3945C50.0096 38.6366 50.1227 38.1869 50.399 37.8417C50.6841 37.472 51.1185 37.2687 51.6217 37.2687C52.1232 37.2687 52.4503 37.422 52.8588 37.8531L53.7037 37.0492C53.1127 36.4442 52.5074 36.1971 51.6217 36.1971C50.954 36.1971 48.775 36.4277 48.775 39.3945C48.775 42.3731 50.954 42.6045 51.6217 42.6045C52.4986 42.6045 53.1039 42.353 53.7033 41.7386L52.8855 40.9788C52.4614 41.365 52.1228 41.5329 51.6217 41.5329Z" fill="#003C68"/>
<path fill-rule="evenodd" clip-rule="evenodd" d="M56.0365 38.8821C56.0501 38.4876 56.0776 38.2965 56.2046 38.01C56.4211 37.5067 56.9254 37.1938 57.5204 37.1938C58.1169 37.1938 58.6045 37.4988 58.8241 38.0104C58.9523 38.2993 58.991 38.4869 59.0042 38.8821L59.0054 38.9149H56.0353L56.0365 38.8821ZM57.712 41.5703C56.6626 41.5703 56.0365 40.8968 56.0365 39.7685V39.737H60.2277V39.2073C60.2277 37.3506 59.1903 36.1971 57.5204 36.1971C55.8512 36.1971 54.8146 37.422 54.8146 39.3945C54.8146 42.0472 56.3759 42.6045 57.6857 42.6045C58.8373 42.6045 59.4523 42.2403 60.06 41.6515L59.279 40.9343C58.8517 41.3473 58.4691 41.5703 57.712 41.5703Z" fill="#003C68"/>
<path fill-rule="evenodd" clip-rule="evenodd" d="M5.05653 50.3238H1.28699V47.53H5.70622V46.4083H0V55.2225H1.28699V51.4509H5.05653V50.3238Z" fill="#003C68"/>
<path fill-rule="evenodd" clip-rule="evenodd" d="M10.0367 53.8424C9.78077 54.0934 9.44255 54.2258 9.05881 54.2258C8.68345 54.2258 8.34962 54.0934 8.09326 53.8424C7.67358 53.4313 7.63804 52.7207 7.63804 52.0874C7.63804 51.4537 7.67358 50.7427 8.09326 50.3317C8.34483 50.0854 8.66987 49.9608 9.05881 49.9608C9.45093 49.9608 9.78876 50.0889 10.0367 50.3317C10.4564 50.7423 10.4916 51.4533 10.4916 52.0874C10.4916 52.7211 10.4564 53.4317 10.0367 53.8424ZM10.9715 49.6278C10.6377 49.2912 10.0339 48.89 9.05881 48.89C8.29532 48.89 7.63804 49.145 7.15767 49.6278C6.62218 50.1748 6.40376 50.887 6.40376 52.0874C6.40376 53.1089 6.53194 53.9196 7.15807 54.5589C7.63804 55.0412 8.29532 55.2966 9.05881 55.2966C10.0339 55.2966 10.6377 54.895 10.9719 54.5589C11.5985 53.9192 11.727 53.1085 11.727 52.0874C11.727 50.8874 11.5082 50.1748 10.9715 49.6278Z" fill="#003C68"/>
<path fill-rule="evenodd" clip-rule="evenodd" d="M15.4072 55.2967C16.0761 55.2967 16.6782 55.048 17.1027 54.596L17.1582 54.5373V55.2226H18.3677V48.9646H17.1327V52.7858C17.1327 53.8476 16.4255 54.2259 15.7638 54.2259C14.93 54.2259 14.4325 53.6876 14.4325 52.7858V48.9646H13.197V52.9727C13.197 53.768 13.3943 54.311 13.8375 54.7327C14.2268 55.1012 14.7699 55.2967 15.4072 55.2967Z" fill="#003C68"/>
<path fill-rule="evenodd" clip-rule="evenodd" d="M25.5288 55.2225V51.2137C25.5288 50.418 25.3316 49.8753 24.8899 49.4544C24.4998 49.0851 23.9571 48.89 23.3198 48.89C22.6498 48.89 22.0468 49.1383 21.6231 49.5896L21.5676 49.6487V48.9645H20.3573V55.2225H21.5924V51.4009C21.5924 50.3388 22.3 49.9608 22.962 49.9608C23.7954 49.9608 24.293 50.4992 24.293 51.4009V55.2225H25.5288Z" fill="#003C68"/>
<path fill-rule="evenodd" clip-rule="evenodd" d="M29.7663 49.9608C30.9698 49.9608 31.136 50.9827 31.136 52.0874C31.136 53.198 30.9698 54.2258 29.7663 54.2258C28.552 54.2258 28.3847 53.198 28.3847 52.0874C28.3847 50.9827 28.552 49.9608 29.7663 49.9608ZM27.8656 54.7453C28.223 55.0956 28.7904 55.2966 29.4233 55.2966C30.176 55.2966 30.6632 55.0834 31.1048 54.5604L31.1615 54.4934V55.2225H32.3706V46.4083H31.136V49.6538L31.0793 49.5884C30.6532 49.0922 30.1692 48.89 29.4097 48.89C28.786 48.89 28.223 49.0906 27.8656 49.4402C27.2362 50.0566 27.1496 51.0769 27.1496 52.0874C27.1496 53.1042 27.2362 54.1301 27.8656 54.7453Z" fill="#003C68"/>
<path fill-rule="evenodd" clip-rule="evenodd" d="M36.2638 52.3751H37.8119V52.9726C37.8119 53.4321 37.7201 53.7364 37.5228 53.9303C37.1583 54.2731 36.7657 54.3003 36.2906 54.3003C35.4827 54.3003 35.073 53.9878 35.073 53.3714C35.073 52.7479 35.5183 52.3751 36.2638 52.3751ZM36.0857 55.2966C36.8572 55.2966 37.3016 55.1295 37.7832 54.6578L37.8375 54.6042V55.2225H39.0474V51.0277C39.0474 49.6093 38.1621 48.89 36.4167 48.89C35.317 48.89 34.7176 49.1198 34.1434 49.765L34.9492 50.5071C35.3118 50.0625 35.6744 49.9116 36.3668 49.9116C37.3663 49.9116 37.8119 50.2867 37.8119 51.1274V51.5534H36.0729C34.7176 51.5534 33.8755 52.2596 33.8755 53.3966C33.8755 53.9307 34.0536 54.4052 34.3766 54.7335C34.7751 55.1224 35.3022 55.2966 36.0857 55.2966Z" fill="#003C68"/>
<path fill-rule="evenodd" clip-rule="evenodd" d="M42.7273 55.2226H43.4728V54.2003H42.9701C42.4893 54.2003 42.225 53.9283 42.225 53.4337V49.9861H43.4728V49.0761H42.225V47.1556H40.9895V49.0761H40.25V49.9861H40.9895V53.496C40.9895 54.2925 41.4447 55.2226 42.7273 55.2226Z" fill="#003C68"/>
<path fill-rule="evenodd" clip-rule="evenodd" d="M45.0001 47.6546H46.3114V46.3714H45.0001V47.6546Z" fill="#003C68"/>
<path fill-rule="evenodd" clip-rule="evenodd" d="M45.0381 55.2226H46.2736V48.9646H45.0381V55.2226Z" fill="#003C68"/>
<path fill-rule="evenodd" clip-rule="evenodd" d="M51.4019 53.8424C51.1467 54.0934 50.8089 54.2258 50.4244 54.2258C50.0486 54.2258 49.7152 54.0934 49.4592 53.8424C49.0387 53.4309 49.0036 52.7207 49.0036 52.0874C49.0036 51.4537 49.0387 50.7431 49.4592 50.3317C49.7104 50.0854 50.035 49.9608 50.4244 49.9608C50.8169 49.9608 51.1547 50.0889 51.4023 50.3317C51.8216 50.7419 51.8567 51.4533 51.8567 52.0874C51.8567 52.7211 51.8216 53.4321 51.4019 53.8424ZM52.3371 49.6278C52.0029 49.2912 51.3995 48.89 50.4244 48.89C49.6605 48.89 49.0032 49.145 48.5236 49.6278C47.9869 50.1748 47.7685 50.8874 47.7685 52.0874C47.7685 53.1085 47.8967 53.9192 48.524 54.5589C49.0032 55.0412 49.6605 55.2966 50.4244 55.2966C51.3995 55.2966 52.0029 54.895 52.3371 54.5589C52.9636 53.9196 53.0918 53.1089 53.0918 52.0874C53.0918 50.887 52.8734 50.1744 52.3371 49.6278Z" fill="#003C68"/>
<path fill-rule="evenodd" clip-rule="evenodd" d="M59.9463 55.2225V51.2137C59.9463 50.418 59.749 49.8753 59.307 49.4544C58.9173 49.0851 58.3746 48.89 57.7369 48.89C57.0676 48.89 56.4651 49.1383 56.0406 49.5896L55.9855 49.6487V48.9645H54.7756V55.2225H56.011V51.4009C56.011 50.3388 56.7182 49.9608 57.3803 49.9608C58.2141 49.9608 58.712 50.4992 58.712 51.4009V55.2225H59.9463Z" fill="#003C68"/>
<path fill-rule="evenodd" clip-rule="evenodd" d="M22.0949 67.9148H23.3516V59.1014H22.0949V67.9148Z" fill="#003C68"/>
<path fill-rule="evenodd" clip-rule="evenodd" d="M28.0462 62.6538C28.4983 62.6538 28.7315 62.7921 29.0146 63.0652L29.9486 62.1485C29.5345 61.7524 29.0853 61.583 28.4531 61.583C27.7595 61.583 27.0947 61.8762 26.7596 62.3294L26.7021 62.4082V61.6567H25.493V67.9147H26.7285V64.1068C26.7285 63.2646 27.2827 62.6538 28.0462 62.6538Z" fill="#003C68"/>
<path fill-rule="evenodd" clip-rule="evenodd" d="M31.6868 64.268C31.6992 63.8759 31.7264 63.6851 31.8549 63.3951C32.0758 62.8843 32.5677 62.5789 33.1711 62.5789C33.7669 62.5789 34.2536 62.8843 34.4733 63.3955C34.6014 63.6851 34.6406 63.8723 34.6549 64.268L34.6561 64.3007H31.686L31.6868 64.268ZM33.3612 66.9566C32.3126 66.9566 31.6868 66.2831 31.6868 65.1544V65.1228H35.8769V64.5924C35.8769 62.7641 34.8147 61.583 33.1711 61.583C31.5012 61.583 30.4637 62.8079 30.4637 64.7796C30.4637 67.4327 32.0263 67.9896 33.3368 67.9896C34.4888 67.9896 35.1034 67.6254 35.7099 67.0366L34.9297 66.3193C34.5024 66.7328 34.1199 66.9566 33.3612 66.9566Z" fill="#003C68"/>
<path fill-rule="evenodd" clip-rule="evenodd" d="M39.2236 67.9148H39.6245V66.8941H39.4536C38.9401 66.8941 38.7209 66.6643 38.7209 66.1259V59.1014H37.4854V66.2016C37.4854 67.0296 37.9418 67.9148 39.2236 67.9148Z" fill="#003C68"/>
<path fill-rule="evenodd" clip-rule="evenodd" d="M43.1601 65.0684H44.7083V65.6655C44.7083 66.1247 44.6164 66.4285 44.4196 66.6224C44.055 66.9661 43.6625 66.9933 43.1869 66.9933C42.3791 66.9933 41.9698 66.6803 41.9698 66.0636C41.9698 65.4405 42.415 65.0684 43.1601 65.0684ZM42.9824 67.9896C43.8961 67.9896 44.4379 67.5895 44.6795 67.3511L44.7338 67.2975V67.9147H45.9442V63.7206C45.9442 62.3022 45.0589 61.583 43.3135 61.583C42.1011 61.583 41.4618 62.0464 41.0414 62.4595L41.8488 63.2028C42.1067 62.9391 42.5308 62.6045 43.2631 62.6045C44.2626 62.6045 44.7083 62.9793 44.7083 63.8199V64.2463H42.9701C41.6144 64.2463 40.7722 64.9526 40.7722 66.0888C40.7722 66.6224 40.9503 67.0969 41.2734 67.4256C41.6715 67.8154 42.199 67.9896 42.9824 67.9896Z" fill="#003C68"/>
<path fill-rule="evenodd" clip-rule="evenodd" d="M53.0398 67.9147V63.9066C53.0398 63.1113 52.8425 62.5686 52.4009 62.1473C52.0112 61.7781 51.4685 61.583 50.8304 61.583C50.1615 61.583 49.5594 61.8317 49.1341 62.2825L49.079 62.3412V61.6567H47.8691V67.9147H49.1049V64.0938C49.1049 63.0321 49.8117 62.6538 50.4734 62.6538C51.3076 62.6538 51.8055 63.1921 51.8055 64.0938V67.9147H53.0398Z" fill="#003C68"/>
<path fill-rule="evenodd" clip-rule="evenodd" d="M57.2785 62.6539C58.4824 62.6539 58.6481 63.6754 58.6481 64.7797C58.6481 65.8907 58.4824 66.9189 57.2785 66.9189C56.0629 66.9189 55.8956 65.8907 55.8956 64.7797C55.8956 63.6754 56.0629 62.6539 57.2785 62.6539ZM55.3777 67.4383C55.7355 67.7887 56.3029 67.9897 56.9343 67.9897C57.6878 67.9897 58.1753 67.7765 58.617 67.2535L58.6737 67.1869V67.9148H59.8832V59.1014H58.6481V62.3469L58.5918 62.2814C58.1653 61.7853 57.6814 61.5831 56.9215 61.5831C56.2981 61.5831 55.7355 61.7841 55.3777 62.134C54.748 62.7492 54.6613 63.7692 54.6613 64.7797C54.6613 65.7965 54.748 66.8227 55.3777 67.4383Z" fill="#003C68"/>
<path fill-rule="evenodd" clip-rule="evenodd" d="M77.2306 38.1467C73.6352 36.7949 71.9784 35.7805 71.9784 33.5274C71.9784 31.5001 73.6352 29.8082 76.6021 29.8082C78.3559 29.8082 79.8373 30.2299 80.949 30.7131V26.7085C79.7052 26.3381 78.2672 26.0902 76.7159 26.0902C70.7793 26.0902 67.1838 29.6967 67.1838 34.0902C67.1838 37.3569 69.5238 40.0609 74.4905 41.8083C78.2009 43.1601 79.6277 44.4579 79.6277 46.8233C79.6277 49.076 77.9142 50.8791 74.2605 50.8791C72.0543 50.8791 69.7566 50.0944 68.2264 49.2534V53.542C69.9275 54.1896 71.9768 54.5975 74.1471 54.5975C80.7118 54.5975 84.4786 51.1605 84.4786 46.3721C84.4786 42.3163 82.0256 39.9485 77.2306 38.1467Z" fill="#003C68"/>
<path fill-rule="evenodd" clip-rule="evenodd" d="M97.9993 26.7101H92.9907V25.3572C92.9907 21.0192 94.5308 17.3584 99.8389 17.3584C100.396 17.3584 100.936 17.3994 101.454 17.4683L101.45 13.4272C100.987 13.3834 100.513 13.3582 100.069 13.3582C92.3039 13.3582 88.024 18.0355 88.024 25.246V26.7101H84.143V30.5554H88.024V53.9551H92.9907V30.5554H97.9993V26.7101Z" fill="#003C68"/>
<path fill-rule="evenodd" clip-rule="evenodd" d="M101.564 53.9551H106.437V26.7102H101.564V53.9551Z" fill="#003C68"/>
</svg>
